<?xml version="1.0" encoding="utf-8"?>
<!DOCTYPE svg PUBLIC "-//W3C//DTD SVG 1.1//EN" "http://www.w3.org/Graphics/SVG/1.1/DTD/svg11.dtd">
<svg version="1.1" id="Layer_1" xmlns="http://www.w3.org/2000/svg" xmlns:xlink="http://www.w3.org/1999/xlink" x="0px" y="0px"
	 width="55px" height="55px" viewBox="0 0 55 55" style="enable-background:new 0 0 55 55;" xml:space="preserve">
<g>
	<path d="M39.857,12.642v22.5c0,0.67-0.229,1.266-0.684,1.788s-1.031,0.928-1.728,1.216s-1.39,0.502-2.079,0.643
		s-1.336,0.211-1.938,0.211s-1.249-0.07-1.938-0.211c-0.69-0.141-1.383-0.354-2.079-0.643c-0.697-0.288-1.272-0.693-1.729-1.216
		C27.228,36.407,27,35.812,27,35.142c0-0.669,0.228-1.266,0.683-1.788c0.456-0.521,1.031-0.927,1.729-1.215
		c0.696-0.288,1.389-0.502,2.079-0.643c0.689-0.141,1.336-0.211,1.938-0.211c1.406,0,2.691,0.261,3.857,0.783V21.28l-15.429,4.761
		v14.244c0,0.669-0.229,1.266-0.684,1.787c-0.455,0.522-1.031,0.928-1.728,1.216s-1.39,0.502-2.079,0.643s-1.336,0.211-1.938,0.211
		s-1.249-0.07-1.938-0.211c-0.69-0.141-1.383-0.354-2.079-0.643c-0.697-0.288-1.272-0.693-1.729-1.216
		C9.228,41.551,9,40.954,9,40.285c0-0.67,0.228-1.266,0.683-1.788c0.456-0.522,1.031-0.928,1.729-1.216
		c0.696-0.288,1.389-0.502,2.079-0.643c0.689-0.141,1.336-0.211,1.938-0.211c1.406,0,2.691,0.261,3.857,0.783V17.785
		c0-0.415,0.127-0.794,0.381-1.136c0.255-0.341,0.583-0.579,0.984-0.713l16.715-5.143c0.16-0.054,0.348-0.081,0.562-0.081
		c0.535,0,0.991,0.188,1.366,0.562C39.67,11.651,39.857,12.106,39.857,12.642z"/>
</g>
</svg>
