<?xml version="1.0" encoding="utf-8"?>
<!DOCTYPE svg PUBLIC "-//W3C//DTD SVG 1.1//EN" "http://www.w3.org/Graphics/SVG/1.1/DTD/svg11.dtd">
<svg version="1.1" id="Layer_1" xmlns="http://www.w3.org/2000/svg" xmlns:xlink="http://www.w3.org/1999/xlink" x="0px" y="0px"
	 width="100px" height="100px" viewBox="0 0 100 100" style="enable-background:new 0 0 100 100;" xml:space="preserve">
<path style="fill:#019BD4;" d="M100,94c0,3.313-2.687,6-6,6H6c-3.313,0-6-2.687-6-6V6c0-3.313,2.687-6,6-6h88c3.313,0,6,2.687,6,6
	V94z"/>
<g>
	<path style="fill:#FFFFFF;" d="M80,15.279v49.086c0,1.462-0.339,2.761-1.331,3.901c-0.993,1.14-2.171,2.023-3.69,2.652
		c-1.518,0.628-2.991,1.095-4.495,1.402c-1.504,0.307-2.896,0.46-4.21,0.46s-2.714-0.153-4.219-0.46
		c-1.506-0.307-3.011-0.773-4.53-1.402c-1.521-0.629-2.772-1.513-3.769-2.652c-0.992-1.14-1.487-2.439-1.487-3.901
		c0-1.459,0.497-2.761,1.489-3.901c0.996-1.138,2.25-2.022,3.771-2.65c1.52-0.628,3.029-1.095,4.535-1.402
		c1.505-0.307,3.061-0.46,4.375-0.46c3.067,0,5.561,0.569,8.561,1.708V34.125L41,44.511v31.076c0,1.459-0.475,2.761-1.467,3.898
		c-0.992,1.14-2.237,2.024-3.757,2.652c-1.519,0.629-3.024,1.095-4.528,1.402C29.744,83.847,28.337,84,27.022,84
		s-2.724-0.153-4.228-0.46c-1.508-0.307-3.017-0.773-4.536-1.402c-1.521-0.628-2.774-1.512-3.771-2.652
		C13.496,78.348,13,77.046,13,75.587c0-1.462,0.496-2.761,1.489-3.901c0.995-1.14,2.249-2.024,3.771-2.652
		c1.52-0.628,3.029-1.095,4.536-1.402c1.504-0.307,2.694-0.46,4.009-0.46c3.068,0,6.195,0.569,8.195,1.708V26.5
		c0-0.905,0.496-1.732,1.051-2.478c0.557-0.744,1.382-1.263,2.258-1.555L74.83,11.248c0.348-0.117,0.785-0.177,1.254-0.177
		c1.168,0,2.017,0.411,2.835,1.227C79.737,13.119,80,14.111,80,15.279z"/>
</g>
</svg>
